<svg width="64" height="64" viewBox="0 0 64 64" fill="none" xmlns="http://www.w3.org/2000/svg">
<path fill-rule="evenodd" clip-rule="evenodd" d="M24.3938 25.2084C24.1457 25.2798 22.5686 25.4648 20.8892 25.6196C16.7603 26.0005 16.5235 26.0008 15.7771 25.6272C14.9004 25.1882 14.5009 24.5622 14.446 23.5406C14.4224 23.1025 14.5427 21.2283 14.7135 19.3757C15.0636 15.5754 15.1653 15.2152 16.0675 14.5782C16.9895 13.9273 18.2504 13.9915 19.1896 14.7373L19.7755 15.2025L24.4337 10.5175C26.9957 7.94059 29.3671 5.64725 29.7036 5.4211C30.04 5.19506 30.7362 4.86809 31.2506 4.69462C32.3959 4.30835 33.8857 4.26132 34.9737 4.57685C36.4805 5.01377 36.9501 5.36937 39.9363 8.3342C41.4881 9.87483 42.8274 11.1354 42.9125 11.1354C42.9976 11.1354 45.1372 9.09182 47.6672 6.59423C52.9496 1.37937 53.0147 1.32993 54.5894 1.33342C55.364 1.3351 55.6729 1.39297 56.1454 1.6249C58.0125 2.5412 58.8149 4.74527 57.9679 6.6308C57.6814 7.26873 57.0612 7.92783 52.2305 12.7277C46.4113 18.5097 46.1823 18.7001 44.5329 19.1318C43.6336 19.3671 42.2111 19.367 41.311 19.1314C39.8305 18.7441 39.339 18.3725 36.2714 15.3219C34.6878 13.7472 33.3409 12.4587 33.2783 12.4587C33.2158 12.4587 31.3495 14.2814 29.1312 16.5092L25.0979 20.5597L25.5012 21.0542C26.0096 21.6774 26.1588 22.0715 26.1554 22.7819C26.1504 23.86 25.3762 24.9263 24.3938 25.2084ZM23.8529 23.1651C23.7047 23.2283 22.1555 23.4107 20.4102 23.5702C18.6649 23.7297 17.1223 23.8663 16.9821 23.8736C16.409 23.9035 16.3999 23.7574 16.7395 20.015C16.9143 18.089 17.1179 16.44 17.1918 16.3505C17.4338 16.0576 17.6989 16.1774 18.4382 16.9135C18.9869 17.4598 19.278 17.6572 19.6164 17.7124L20.0657 17.7857L25.3571 12.4928C30.1028 7.74598 31.0563 6.75843 32.1549 6.55538C32.483 6.49473 32.8241 6.50407 33.283 6.50413C35.0576 6.50425 35.2061 6.60157 38.6169 9.99994C41.9799 13.351 42.3071 13.5548 43.6871 13.1595C44.1045 13.04 44.9036 12.2959 48.9099 8.29618C51.8525 5.35854 53.7531 3.54928 53.9393 3.50862C54.807 3.31915 55.2132 3.39338 55.6847 3.82753C56.1412 4.2476 56.322 4.90587 56.1619 5.56449C56.063 5.97109 46.1552 16.0037 45.3136 16.5494C44.0565 17.3644 42.4392 17.4523 41.0155 16.7831C40.343 16.467 39.858 16.038 37.4191 13.6021C35.6028 11.788 34.4419 10.7203 34.155 10.6001C33.5492 10.3464 32.7982 10.3659 32.2132 10.6505C31.8969 10.8044 30.1209 12.5037 27.146 15.4991C23.4266 19.2438 22.4042 20.1859 22.5584 20.858C22.6279 21.1607 22.936 21.4086 23.344 21.833C24.1744 22.6972 24.283 22.9813 23.8529 23.1651ZM48.659 20.9583C49.0234 20.2473 49.6599 19.6722 50.3574 19.4233C51.0444 19.1783 59.8374 19.1623 60.5142 19.4048C61.4645 19.7453 62.2088 20.4933 62.4967 21.3972C62.6972 22.0263 62.7332 51.2214 62.5345 51.9174C62.3217 52.6626 61.7065 53.3972 60.9736 53.7819L60.3334 54.1179H46.7066H33.0797L33.0353 56.5539C32.9865 59.2368 32.9329 59.4793 32.2061 60.3109C31.9843 60.5647 31.533 60.8985 31.2032 61.0529L30.6036 61.3333H17.671H4.73832L4.13874 61.0529C3.80896 60.8985 3.35764 60.5647 3.13586 60.3109C2.96778 60.1186 2.83548 59.9738 2.73102 59.8111C2.33186 59.1896 2.33892 58.3072 2.3077 53.518C2.27393 48.3456 2.25956 48.0328 2.04569 47.8039C1.92127 47.6707 1.70944 47.3181 1.57508 47.0204C1.349 46.5195 1.33104 46.2457 1.33344 43.3514C1.33619 39.987 1.37966 39.6859 1.9742 38.9028C2.14879 38.6729 2.54575 38.3346 2.85638 38.1512L3.4211 37.8177L7.00141 37.7576L10.5817 37.6974L10.7782 37.0959C11.5002 34.8872 13.1414 33.3827 15.4557 32.8086C16.3194 32.5943 19.0226 32.5943 19.8863 32.8086C20.8246 33.0413 22.1287 33.6972 22.7776 34.2626C23.4968 34.8892 24.1608 35.9019 24.5082 36.9019L24.7845 37.6974L25.8081 37.7322L26.8316 37.767L26.8323 36.048C26.8327 35.1026 26.888 34.13 26.9553 33.8868C27.1661 33.1244 27.7923 32.3365 28.5081 31.9333L29.1667 31.5623L33.1482 31.5236L37.1298 31.4848V29.5825C37.1298 27.7357 37.1395 27.6613 37.4636 27.0348C37.8271 26.3318 38.601 25.7096 39.3838 25.4913C39.6449 25.4184 41.5372 25.3681 44.0309 25.3678L48.2377 25.367L48.2896 23.4724C48.3379 21.7128 48.3642 21.5335 48.659 20.9583ZM50.6911 21.6742C50.8394 21.5387 51.0414 21.3972 51.1402 21.3597C51.239 21.3222 53.2717 21.3017 55.6574 21.3144L59.9951 21.3371L60.2677 21.6111L60.5403 21.885L60.5717 36.6259L60.6029 51.3667L60.2516 51.7198L59.9002 52.0729H46.4793H33.0584V50.0425C33.0584 48.2978 33.0863 47.989 33.2571 47.8471C33.3664 47.7564 33.5814 47.4114 33.7349 47.0806C34.0054 46.4978 34.014 46.3793 34.0126 43.2912C34.0113 40.4644 33.9865 40.0489 33.7928 39.6222C33.459 38.8866 32.9503 38.3535 32.285 38.0423C31.7648 37.799 31.495 37.7597 30.3342 37.7588L28.987 37.7576V35.9741C28.987 34.2739 28.9997 34.1786 29.2597 33.9333C29.5269 33.6812 29.6229 33.6753 34.0463 33.6416L38.5603 33.6073L38.833 33.3337C39.095 33.0707 39.108 32.9613 39.1655 30.5489C39.2192 28.2984 39.2491 28.0117 39.4535 27.7851C39.678 27.5363 39.7565 27.5324 44.495 27.5324C47.7089 27.5324 49.4348 27.4881 49.689 27.3991C50.3491 27.1679 50.4217 26.8563 50.4217 24.2512C50.4217 21.9872 50.4295 21.9133 50.6911 21.6742ZM13.7165 36.0889C14.3436 35.4155 15.1465 35.0136 16.2939 34.7986C17.282 34.6136 17.8234 34.6046 18.8647 34.7558C20.3662 34.9738 21.4305 35.627 22.177 36.7887C22.3957 37.1289 22.577 37.3501 22.5285 37.4939C22.4291 37.7887 21.3634 37.7576 17.671 37.7576C14.417 37.7576 12.8212 37.7167 12.8212 37.6334C12.8212 37.309 13.2183 36.624 13.7165 36.0889ZM3.36123 40.5059L3.71125 40.1542L4.06127 39.8026H17.671H31.2807L31.6307 40.1542L31.9807 40.5059V43.2278C31.9807 45.3981 31.9447 46.0195 31.8031 46.2947C31.6597 46.5733 31.3889 46.7315 30.3961 47.1166C27.2344 48.3433 24.3494 48.9452 21.631 48.9452H20.5141L20.3657 48.5856C20.1799 48.1347 19.3987 47.417 18.8253 47.1704C18.2595 46.9271 17.0752 46.9362 16.5008 47.1885C15.9105 47.4476 15.1629 48.1327 14.9762 48.5856L14.8278 48.9452H13.7109C11.4877 48.9452 8.5392 48.4084 6.1439 47.5675C4.40003 46.9554 3.65724 46.579 3.49738 46.2266C3.40853 46.0307 3.36123 44.984 3.36123 43.2162V40.5059ZM1.41498 45.0127C1.39451 45.8853 1.37786 45.1378 1.37798 43.3514C1.37798 41.565 1.39475 40.8509 1.4151 41.7647C1.43546 42.6783 1.43546 44.1399 1.41498 45.0127ZM16.786 51.5126C16.4784 50.8342 16.7165 49.3251 17.1595 49.1459C17.5005 49.0082 18.08 49.0789 18.3395 49.2899C18.5652 49.4735 18.6248 49.6603 18.6662 50.3136C18.6955 50.777 18.6572 51.2575 18.5751 51.4569C18.4383 51.7886 18.021 52.0729 17.671 52.0729C17.3447 52.0729 16.9175 51.8024 16.786 51.5126ZM4.51331 58.7439C4.47248 58.6368 4.43895 56.4489 4.43895 53.8818V49.2143L5.90585 49.6864C8.23432 50.4359 10.3531 50.8101 13.6894 51.0612C14.5965 51.1295 14.6174 51.1383 14.6201 51.4515C14.6234 51.866 14.9732 52.632 15.3801 53.1161C16.4237 54.358 18.5897 54.4473 19.8116 53.2988C20.2221 52.9131 20.7218 51.9007 20.7233 51.4515C20.7245 51.138 20.745 51.1295 21.6525 51.0612C24.9888 50.8101 27.1076 50.4359 29.4361 49.6864L30.903 49.2143V53.8818C30.903 56.4489 30.8695 58.6368 30.8286 58.7439C30.8079 58.7983 30.7914 58.8472 30.7664 58.8913C30.5353 59.2989 29.571 59.2907 17.671 59.2907C5.77093 59.2907 4.80663 59.2989 4.5755 58.8913C4.5505 58.8472 4.53407 58.7983 4.51331 58.7439Z" fill="black"/>
</svg>
