<svg width="64" height="64" viewBox="0 0 64 64" fill="none" xmlns="http://www.w3.org/2000/svg">
<path d="M51.0625 49.3392C51.0625 49.3392 49.0517 50.542 48.9916 51.1742C48.9315 51.8066 48.8873 55.6305 47.9087 55.8566C46.9302 56.0826 35.3975 53.2325 32.1528 52.1267" stroke="black" stroke-width="1.5" stroke-miterlimit="10" stroke-linecap="round" stroke-linejoin="round"/>
<path d="M53.7072 26.6863C53.6777 27.6617 53.495 28.6767 53.104 29.7125C53.104 29.7125 51.539 32.754 51.562 34.1917C51.585 35.6295 55.6058 40.3181 55.3876 40.9355C55.1695 41.5528 51.5036 41.5236 51.4435 42.1558C51.3834 42.7882 52.8125 46.3393 52.8125 46.3393L47.6875 46.5893" stroke="black" stroke-width="1.5" stroke-miterlimit="10" stroke-linecap="round" stroke-linejoin="round"/>
<path d="M34.4945 53.0343C34.4945 53.0343 31.5625 55.8392 31.5625 61.4642" stroke="black" stroke-width="1.5" stroke-miterlimit="10" stroke-linecap="round" stroke-linejoin="round"/>
<path d="M17.9595 10.8954C22.378 7.20675 28.8447 4.15375 37.6477 5.48562C49.8013 7.32437 56.4548 14.7319 58.925 27.2116" stroke="black" stroke-width="1.5" stroke-miterlimit="10" stroke-linecap="round" stroke-linejoin="round"/>
<path d="M51.2412 19.4918C51.2412 19.4918 46.588 31.3623 30.738 33.4146" stroke="black" stroke-width="1.5" stroke-miterlimit="10" stroke-linecap="round" stroke-linejoin="round"/>
<path d="M26.5455 39.5602C24.588 39.3742 23.1517 37.6366 23.3377 35.6791L23.652 32.371C23.838 30.4135 25.5756 28.9772 27.5331 29.1632C29.4906 29.3492 30.9269 31.0869 30.7409 33.0444" stroke="black" stroke-width="1.5" stroke-miterlimit="10" stroke-linecap="round" stroke-linejoin="round"/>
<path d="M45.0625 31.7142L48.0625 35.0892H43.8125" stroke="black" stroke-width="1.5" stroke-miterlimit="10" stroke-linecap="round" stroke-linejoin="round"/>
<path d="M15.6707 48.4741V5.85386C15.6707 4.01636 14.181 2.52673 12.3437 2.52673C10.5063 2.52673 9.01667 4.01636 9.01667 5.85386V48.4741C6.85817 49.6534 5.3938 51.944 5.3938 54.577C5.3938 58.4152 8.5053 61.5269 12.3437 61.5269C16.182 61.5269 19.2935 58.4152 19.2935 54.577C19.2935 51.944 17.8292 49.6534 15.6707 48.4741Z" stroke="black" stroke-width="1.5" stroke-miterlimit="10" stroke-linecap="round" stroke-linejoin="round"/>
<path d="M12.3125 10.4642V54.8392" stroke="black" stroke-width="1.5" stroke-miterlimit="10" stroke-linecap="round" stroke-linejoin="round"/>
<path d="M12.375 57.5267C14.0319 57.5267 15.375 56.1836 15.375 54.5267C15.375 52.8699 14.0319 51.5267 12.375 51.5267C10.7181 51.5267 9.375 52.8699 9.375 54.5267C9.375 56.1836 10.7181 57.5267 12.375 57.5267Z" fill="black"/>
</svg>
