<svg width="64" height="64" viewBox="0 0 64 64" fill="none" xmlns="http://www.w3.org/2000/svg">
<path d="M2.08325 20.5628V20.5627C2.08289 18.4616 2.50133 16.3816 3.3141 14.4441C4.12687 12.5066 5.31768 10.7505 6.81692 9.27855C8.31617 7.80657 10.0938 6.64818 12.0459 5.87109C13.9979 5.094 16.0853 4.7138 18.186 4.75271L18.2039 4.75283C20.7011 4.73957 23.1726 5.2572 25.4546 6.27143C27.409 7.14005 29.1862 8.35594 30.7012 9.85713C31.4175 10.5669 32.5823 10.5669 33.2986 9.85714C34.8136 8.35594 36.5908 7.14005 38.5452 6.27143C40.8272 5.2572 43.2987 4.73957 45.7959 4.75283L45.8138 4.75271C47.9145 4.7138 50.0019 5.094 51.954 5.87109C53.9061 6.64818 55.6837 7.80657 57.1829 9.27855C58.6822 10.7505 59.873 12.5066 60.6857 14.4441C61.4985 16.3816 61.9169 18.4616 61.9166 20.5627V20.5628C61.9166 28.3143 57.3888 35.2166 51.3278 41.4627C47.2198 45.6962 42.502 49.5406 38.1237 53.1083C36.0275 54.8164 34.0092 56.461 32.1728 58.0546L32.6644 58.6211L32.1728 58.0546C32.0734 58.141 31.9321 58.1408 31.8326 58.0536C29.9189 56.3768 27.8074 54.6507 25.6157 52.859C21.317 49.3449 16.7098 45.5786 12.6812 41.4372C6.61654 35.2025 2.08325 28.32 2.08325 20.5628Z" stroke="black" stroke-width="1.5" stroke-linejoin="round"/>
<path d="M31.0111 9.87834C31.3939 9.63478 31.9016 9.74761 32.1451 10.1303L35.978 16.1535C36.1118 16.3636 36.1433 16.6237 36.0632 16.8595C35.983 17.0953 35.8002 17.282 35.5662 17.3671L30.3699 19.2567L32.2028 23.3806C32.387 23.7952 32.2003 24.2806 31.7857 24.4648C31.3712 24.6491 30.8857 24.4624 30.7015 24.0478L28.511 19.1192C28.4185 18.9111 28.4166 18.6739 28.5057 18.4643C28.5948 18.2547 28.7669 18.0915 28.9809 18.0137L31.5965 17.0625L29.9807 16.2301C29.5774 16.0224 29.4189 15.527 29.6267 15.1237C29.8344 14.7204 30.3298 14.5619 30.7331 14.7697L33.6995 16.2978L34.0431 16.1729L30.7591 11.0124C30.5156 10.6296 30.6284 10.1219 31.0111 9.87834Z" fill="black"/>
<path d="M60.1498 14.1455C60.3091 13.7207 60.0939 13.2472 59.6691 13.0879C59.2443 12.9286 58.7709 13.1439 58.6116 13.5686L57.1117 16.473L52.0256 17.9988C51.7926 18.0688 51.6025 18.2384 51.5066 18.4621L49.8638 22.2954C49.6851 22.7124 49.8782 23.1953 50.2952 23.374C50.7122 23.5527 51.1951 23.3595 51.3738 22.9425L52.8654 19.4621L57.9739 17.9296C58.2197 17.8558 58.4169 17.6715 58.507 17.4312L60.1498 14.1455Z" fill="black"/>
<path d="M14.5594 25.9264C14.2794 25.5905 13.7853 25.5328 13.4355 25.7952L9.39882 28.8226L3.78331 26.2206C3.35293 26.0772 2.88774 26.3098 2.74428 26.7402C2.60082 27.1705 2.83342 27.6357 3.2638 27.7792L9.28761 30.5173C9.54332 30.6025 9.82458 30.5569 10.0402 30.3952L13.7969 27.5777L15.5551 29.6876L13.3475 31.8953C13.0584 32.1843 13.0259 32.6419 13.2712 32.969L16.5569 36.2547C16.8291 36.6176 17.344 36.6912 17.7069 36.419C18.0698 36.1468 18.1434 35.6319 17.8712 35.269L15.0129 32.5532L16.8732 30.6929L20.7589 32.15C21.1525 32.2976 21.5941 32.1242 21.7821 31.7482L23.4249 28.4625C23.6278 28.0567 23.4633 27.5633 23.0576 27.3604C22.6518 27.1576 22.1584 27.322 21.9555 27.7278L20.6434 30.3521L17.1583 29.0452L14.5594 25.9264Z" fill="black"/>
<path d="M37.6974 34.9258C37.5382 34.501 37.0647 34.2858 36.6399 34.4451C36.2151 34.6044 35.9999 35.0779 36.1592 35.5026L37.6323 39.4309L34.292 43.3558L32.6963 40.8027C32.4559 40.418 31.9491 40.301 31.5644 40.5414C31.1797 40.7819 31.0627 41.2887 31.3032 41.6734L33.7133 45.5295L29.1987 50.5457C28.9893 50.7783 28.9304 51.1097 29.0466 51.4002L31.2371 57.9717C31.4056 58.3929 31.8836 58.5978 32.3048 58.4293C32.726 58.2608 32.9309 57.7827 32.7624 57.3615L30.7618 51.2647L35.3484 46.1685C35.5935 45.8961 35.6286 45.4943 35.4344 45.1836L35.2055 44.8173L39.1967 40.1275C39.3901 39.9003 39.4451 39.5861 39.3403 39.3067L37.6974 34.9258Z" fill="black"/>
</svg>
