<svg width="64" height="64" viewBox="0 0 64 64" fill="none" xmlns="http://www.w3.org/2000/svg">
<path fill-rule="evenodd" clip-rule="evenodd" d="M39.2287 2.40204C38.123 3.11355 36.3687 4.52674 36.1889 4.85057C36.093 5.02359 36.0122 5.43252 36.0094 5.7593C36.0051 6.26361 36.2387 6.7606 37.5501 9.0399C38.4002 10.5174 39.0958 11.7765 39.0958 11.8381C39.0958 11.8997 38.0683 12.7332 36.8124 13.6904C33.8742 15.9298 33.7562 16.0539 33.7562 16.9054C33.7562 17.4985 33.9296 17.8757 35.3019 20.2683C36.152 21.7505 36.8475 23.0183 36.8475 23.0854C36.8475 23.1526 36.4939 23.4749 36.0615 23.8017C35.1708 24.4749 34.8112 25.1348 34.9601 25.8233C35.0915 26.4314 35.4997 26.9724 35.9657 27.1563C36.6414 27.423 55.2449 31.119 55.9114 31.119C56.6501 31.119 57.2462 30.7604 57.4838 30.1731C57.668 29.7177 62 8.22555 62 7.7671C62 7.26941 61.6051 6.57787 61.176 6.32424C60.8057 6.10521 40.8539 2 40.1599 2C39.9913 2 39.5723 2.1809 39.2287 2.40204ZM12.9597 4.26059C7.74305 5.18382 3.26887 6.03319 3.0172 6.14812C2.49771 6.38543 2.0007 7.10609 2 7.6232C1.99874 8.40477 5.8094 29.8124 6.02538 30.2372C6.27353 30.7255 6.64576 31.0215 7.18394 31.1584C7.62235 31.2699 27.9458 27.7078 28.4924 27.4237C28.7768 27.2758 29.2349 26.6678 29.9412 25.501C31.1041 23.5793 31.2616 23.0052 30.8197 22.3C30.6649 22.053 29.4602 20.986 28.1425 19.929C26.8248 18.8718 25.7467 17.9746 25.7467 17.935C25.7467 17.8953 26.4795 16.6578 27.375 15.1847C28.2707 13.7117 29.0364 12.3032 29.0767 12.0546C29.2124 11.2168 28.8285 10.7623 26.2346 8.6892C24.8842 7.60997 23.7796 6.69209 23.7799 6.64947C23.7801 6.60671 24.0014 6.20467 24.2717 5.75593C24.944 4.63984 24.9515 3.88978 24.2977 3.17559C23.9013 2.74246 23.7296 2.66088 23.1385 2.62472C22.7037 2.598 18.9027 3.20893 12.9597 4.26059ZM39.0562 4.75561C38.3824 5.2737 37.8312 5.74087 37.8312 5.79376C37.8312 5.84666 38.5332 7.11172 39.3913 8.60508C40.4335 10.419 40.9555 11.4694 40.9641 11.7702C40.9901 12.6876 40.716 12.9964 38.0956 15.0015C36.1636 16.4799 35.5843 16.9942 35.6515 17.1713C35.6998 17.299 36.4036 18.5565 37.2156 19.9656C39.1329 23.2931 39.1589 23.6717 37.5543 24.8951C37.1744 25.1847 36.8599 25.4543 36.8555 25.4938C36.8449 25.5906 55.7861 29.3721 55.8538 29.2869C55.9369 29.1823 60.2014 7.88921 60.1493 7.83913C60.1238 7.81451 55.7716 6.92927 50.4776 5.87156C45.1837 4.81399 40.7238 3.91833 40.5667 3.8812C40.3676 3.83407 39.9109 4.09839 39.0562 4.75561ZM13.277 6.06962C8.15758 6.97639 3.93632 7.75107 3.89627 7.79116C3.81463 7.87289 7.43518 28.8143 7.59073 29.1597C7.67799 29.3535 8.90681 29.1669 17.5231 27.6504C22.9312 26.6985 27.4256 25.893 27.5109 25.8603C27.5961 25.8276 27.9401 25.3357 28.2755 24.7672C28.6109 24.1988 28.9685 23.6039 29.0702 23.4452C29.2438 23.1747 29.1028 23.0342 26.8137 21.1945C25.4708 20.1152 24.2703 19.0643 24.146 18.8589C23.6466 18.0336 23.7981 17.5919 25.5986 14.626L27.2771 11.8609L24.9708 10.0159C23.7025 9.00107 22.5045 7.98022 22.3087 7.74741C21.787 7.12663 21.8291 6.39809 22.4515 5.28411C22.7578 4.73578 22.8798 4.39704 22.7676 4.40604C22.6673 4.4142 18.3965 5.16271 13.277 6.06962ZM48.7292 9.90896C48.6089 10.0809 48.5104 10.3289 48.5104 10.4601C48.5104 10.9331 48.338 11.1436 47.951 11.1436C47.3929 11.1436 46.4294 11.5119 45.8701 11.939C45.2874 12.3838 44.8643 13.262 44.8601 14.035C44.8544 15.0602 45.8015 16.5014 46.8941 17.1302C47.1435 17.2738 47.1411 17.3374 46.8273 18.9589C46.6484 19.883 46.4849 20.6602 46.4638 20.6861C46.3664 20.8062 45.4157 20.2269 44.9923 19.7894C44.7316 19.5203 44.3805 19.3026 44.2071 19.3026C43.819 19.3026 43.4518 19.6526 43.4518 20.0227C43.4518 20.4347 44.6877 21.5966 45.4609 21.9117L46.1351 22.1863L46.049 22.8246C45.9776 23.3542 46.0113 23.5065 46.2474 23.7204C46.7923 24.2141 47.3922 23.7738 47.5541 22.7613C47.5874 22.5524 47.8007 22.4507 48.5066 22.3065C50.1921 21.9625 51.1142 20.94 51.1053 19.4247C51.0993 18.3869 50.5457 17.4505 49.5488 16.7916L48.8358 16.3205L49.1794 14.6112C49.3683 13.6712 49.5429 12.8808 49.5674 12.8549C49.6766 12.7389 50.6172 13.3096 51.0449 13.7515C51.7597 14.4896 52.4449 14.3576 52.4449 13.4816C52.4449 12.9524 51.453 11.9849 50.5278 11.6114C49.8951 11.3559 49.8921 11.3517 49.9681 10.7797C50.1035 9.76027 49.2519 9.16172 48.7292 9.90896ZM14.1565 10.0157C13.9588 10.2343 13.9231 10.4311 13.9913 10.9287C14.0766 11.5517 14.0688 11.5676 13.5467 11.8343C11.003 13.1334 11.1048 16.1527 13.7326 17.3519C14.0417 17.493 14.4211 17.6107 14.5757 17.6135C14.7302 17.6165 14.9298 17.6653 15.019 17.7221C15.1432 17.8013 15.7701 20.7145 15.7701 21.213C15.7701 21.3747 14.6435 21.1372 13.9847 20.8367C13.405 20.5724 13.3332 20.5678 13.0186 20.7741C12.5645 21.0721 12.5778 21.5941 13.0494 21.9655C13.5219 22.3376 14.6642 22.6787 15.4379 22.6787C16.0212 22.6787 16.0411 22.6937 16.1333 23.2062C16.2571 23.8942 16.4225 24.0854 16.8942 24.0854C17.4665 24.0854 17.6493 23.7766 17.5539 22.9707C17.4799 22.3447 17.5005 22.2761 17.7844 22.2048C18.2625 22.0846 19.2605 21.1642 19.5688 20.5591C19.7415 20.2205 19.845 19.7351 19.845 19.2654C19.845 17.8583 18.7941 16.7339 17.1771 16.4109L16.4024 16.2562L16.0959 14.5791C15.9274 13.6567 15.7851 12.8546 15.7798 12.7965C15.7609 12.5911 16.6918 12.701 17.2959 12.9755C17.6329 13.1285 18.0574 13.2537 18.2395 13.2537C18.5711 13.2537 18.8614 12.8995 18.8614 12.4948C18.8614 11.9225 17.517 11.2933 16.2322 11.2643C15.5213 11.2483 15.5125 11.2425 15.4192 10.7386C15.2462 9.80557 14.6532 9.46613 14.1565 10.0157ZM47.5268 12.7242C46.1988 13.0793 45.9321 14.303 46.9666 15.2951C47.1957 15.515 47.4089 15.6679 47.4401 15.6349C47.5113 15.5593 48.1031 12.6549 48.0544 12.6191C48.0348 12.6045 47.7973 12.6519 47.5268 12.7242ZM13.8333 13.3326C13.4677 13.5889 13.1002 14.2456 13.1002 14.6427C13.1002 15.0363 13.774 15.788 14.3383 16.0242C14.6015 16.1342 14.8372 16.204 14.8619 16.1791C14.8868 16.1543 14.8248 15.6917 14.7242 15.1511C14.6236 14.6103 14.4988 13.9308 14.4468 13.6406C14.3409 13.0499 14.28 13.0194 13.8333 13.3326ZM16.9134 19.1971C17.058 19.99 17.198 20.7023 17.2243 20.7796C17.2507 20.857 17.5351 20.6586 17.8562 20.339C18.5342 19.6638 18.6148 19.1412 18.1352 18.5309C17.8628 18.184 17.1117 17.7552 16.7769 17.7552C16.7073 17.7552 16.7688 18.4041 16.9134 19.1971ZM48.5104 17.9507C48.5104 17.9808 48.3839 18.6209 48.2294 19.3729C48.0748 20.1249 47.9483 20.765 47.9483 20.7951C47.9483 20.9289 48.5611 20.831 48.9348 20.6375C49.7759 20.202 49.8951 19.1874 49.1984 18.3931C48.8232 17.9652 48.5104 17.7641 48.5104 17.9507ZM26.6191 29.8318C26.3761 29.9861 23.7795 36.2258 23.7795 36.6552C23.7795 36.8408 23.8586 37.0564 23.9551 37.1342C24.0518 37.212 25.4488 37.8235 27.0597 38.4931C30.1414 39.7739 30.1098 39.768 31.1169 39.2593C31.8924 38.8677 31.9764 38.6099 31.6601 37.5927L31.3921 36.7306L32.1579 36.3546C33.0707 35.9064 33.1917 35.6034 32.8654 34.582L32.6365 33.8657L33.0558 33.5371C33.4649 33.2167 33.5864 32.778 33.3633 32.4266C33.2495 32.2473 27.2763 29.7107 26.9764 29.7144C26.8797 29.7156 26.719 29.7684 26.6191 29.8318ZM27.1334 32.0741C26.2919 34.0317 25.4324 36.1952 25.4807 36.2339C25.7675 36.4631 30.0491 38.1219 30.1341 38.0368C30.1959 37.9749 30.1313 37.58 29.9905 37.1593C29.8497 36.7384 29.7592 36.2817 29.7891 36.1444C29.8192 36.0072 30.215 35.7071 30.6687 35.4778L31.4939 35.0609L31.2186 34.2599C31.0671 33.8193 30.9797 33.3438 31.0243 33.2033C31.0813 33.0235 31.0089 32.9101 30.7796 32.8202C30.6006 32.7501 29.771 32.4043 28.936 32.052L27.4182 31.4116L27.1334 32.0741ZM36.8319 36.0171C35.239 36.6887 33.8321 37.3251 33.7054 37.4312C33.3253 37.7498 33.4186 38.2746 33.9034 38.546C34.3629 38.803 34.3636 38.8114 34.0274 40.0101C33.8599 40.6074 33.8665 40.6994 34.0947 40.9518C34.2338 41.1056 34.6281 41.3459 34.9709 41.4856C35.3931 41.6576 35.5747 41.8077 35.5339 41.9507C35.0082 43.7895 35.0075 43.7868 36.1559 44.3961L36.9206 44.8019L39.8701 43.5746C42.7716 42.3672 43.3113 42.0784 43.3113 41.7332C43.3113 41.5073 40.8225 35.5074 40.5569 35.0929C40.4411 34.9125 40.2195 34.7806 40.0411 34.7863C39.8689 34.7918 38.4248 35.3456 36.8319 36.0171ZM37.6906 37.2373C36.1641 37.8896 35.9401 38.0269 35.979 38.2862C36.0036 38.4502 35.9182 38.9027 35.789 39.292C35.6599 39.6811 35.5953 40.0406 35.6456 40.0908C35.6957 40.1411 36.0288 40.3428 36.3857 40.5389C37.3249 41.0553 37.3864 41.2172 37.0254 42.2216C36.8582 42.6872 36.7712 43.0991 36.8324 43.1369C36.9362 43.2012 41.4754 41.3634 41.5286 41.2356C41.5718 41.1315 39.6087 36.4641 39.5265 36.4756C39.4828 36.4816 38.6567 36.8245 37.6906 37.2373ZM25.1495 43.9071C23.7168 45.3586 23.2174 45.9543 23.2174 46.2117C23.2174 46.472 23.6595 46.9868 24.9794 48.264L26.7412 49.9689H27.4869C28.3794 49.9689 28.6561 49.7326 28.7223 48.9139C28.7667 48.3644 28.7823 48.3492 29.3853 48.2688C30.1199 48.1706 30.3838 47.8693 30.3838 47.1286C30.3838 46.6919 30.4342 46.5928 30.6568 46.5928C30.9942 46.5928 31.3741 46.0788 31.2668 45.7678C31.0952 45.2709 27.6097 41.9512 27.2586 41.9501C27.1612 41.9498 26.2123 42.8304 25.1495 43.9071ZM26.1042 44.9962L24.9864 46.1767L26.1042 47.3029L27.2222 48.4291L27.3245 47.8376C27.4543 47.0873 27.5496 46.9988 28.3217 46.9117L28.9537 46.8404L29.0014 46.15C29.0482 45.4708 29.0351 45.4461 28.202 44.6195C27.7362 44.1575 27.3252 43.7876 27.2886 43.7975C27.2521 43.8075 26.7191 44.347 26.1042 44.9962ZM32.2907 47.0951C32.0423 47.3439 31.9986 47.8718 32.2091 48.0825C32.3008 48.1744 32.1813 48.3792 31.8578 48.6847C31.588 48.9394 31.3674 49.2131 31.3674 49.293C31.3674 49.3729 31.5036 49.6807 31.6699 49.9771L31.9723 50.5159L31.5294 51.021C31.2858 51.2988 31.0864 51.6139 31.0864 51.7213C31.0864 51.8286 31.2946 52.1904 31.5492 52.5252L32.0121 53.134L33.8326 53.3682C36.2402 53.678 37.0444 53.6864 37.2781 53.4045C37.4619 53.1828 37.9483 49.6336 37.9637 48.4035C37.9682 48.0305 37.8934 47.6875 37.7883 47.6002C37.6441 47.4805 33.4059 46.8792 32.6772 46.8751C32.5861 46.8746 32.4123 46.9736 32.2907 47.0951ZM33.5805 49.0488C33.1189 49.6059 33.1179 49.6165 33.4751 50.0712C33.8579 50.5585 33.8297 50.794 33.3258 51.3144L32.8955 51.7588L33.4312 51.8421C33.7258 51.8878 34.4477 51.9677 35.0353 52.0196L36.1036 52.114L36.2648 50.8561C36.3535 50.1643 36.426 49.406 36.426 49.1709C36.426 48.7459 36.4207 48.7431 35.4775 48.6539C34.0848 48.5223 34.0028 48.5393 33.5805 49.0488ZM26.3292 52.6065C26.1136 53.015 25.3252 55.6757 25.3252 55.995C25.3252 56.4073 25.7382 56.6318 27.3346 57.0877C28.7004 57.4778 28.7154 57.4789 29.1935 57.2212C29.751 56.9205 29.8845 56.6235 29.691 56.1142C29.5752 55.8092 29.597 55.7374 29.8278 55.6642C30.1567 55.5596 30.3228 55.0099 30.1299 54.6645C30.0318 54.4891 30.0496 54.3271 30.1907 54.1114C30.5163 53.614 30.0912 53.2837 28.4924 52.7914C26.8831 52.2958 26.5102 52.2638 26.3292 52.6065ZM27.2227 53.9332C27.0764 54.3302 26.7423 55.5135 26.7707 55.5336C26.7871 55.5454 27.1009 55.6553 27.4681 55.7778L28.1355 56.0008V55.663C28.1355 55.4773 28.268 55.2019 28.4299 55.0508C28.785 54.7195 28.6858 54.2301 28.2288 54.0591C27.4644 53.773 27.2897 53.7512 27.2227 53.9332ZM32.9084 57.3996C32.1716 57.684 31.4919 57.9681 31.3979 58.0307C31.1989 58.163 31.1677 58.778 31.354 58.8933C31.4239 58.9366 31.4488 59.2134 31.4093 59.5086C31.3473 59.9711 31.3875 60.0781 31.6999 60.283C32.0018 60.481 32.0413 60.5767 31.9356 60.8546C31.7766 61.2734 32.0356 61.6787 32.6159 61.9192C32.9866 62.073 33.1917 62.0342 34.4832 61.565C36.1468 60.961 36.286 60.876 36.2839 60.4669C36.2817 60.0469 35.1806 57.102 34.9774 56.9727C34.6847 56.7863 34.2813 56.8696 32.9084 57.3996ZM33.5304 58.5518C32.8158 58.8623 32.6763 59.2594 33.14 59.663C33.3244 59.8234 33.4751 60.0818 33.4751 60.2369C33.4751 60.5748 33.417 60.5699 34.2122 60.2987L34.8587 60.0783L34.5852 59.2826C34.4349 58.8451 34.2658 58.4454 34.2096 58.3942C34.1534 58.343 33.8478 58.4138 33.5304 58.5518Z" fill="black"/>
</svg>
